<svg width="8428" height="5238" viewBox="0 0 8428 5238" fill="none" xmlns="http://www.w3.org/2000/svg">
<g id="first">
<rect id="Rectangle 3" width="8428" height="5238" fill="#D9D9D9"/>
<g id="Group 3">
<g id="first_2">
<g id="bird 3" clip-path="url(#clip0_29_49)">
<g id="layer1">
<path id="path1886" d="M3501.44 1052.69C3500.48 1049.62 3499.65 1045.62 3496.34 1028.06C3494.46 1018.05 3491.78 1006.58 3490.4 1002.56C3488.18 996.07 3487.46 992.86 3486.5 985.15C3486.35 983.99 3485.49 981.9 3484.58 980.51C3483.66 979.11 3481.96 974.88 3480.81 971.11C3479.65 967.34 3477.84 961.55 3476.78 958.25C3473.4 947.67 3471.82 936.79 3472.24 927.06C3472.7 916.3 3474.65 911.87 3483.26 901.99C3486.18 898.65 3489.45 894.64 3490.53 893.08C3492.86 889.72 3499.82 872.68 3499.82 870.33C3499.82 868.58 3493.83 865.56 3487.78 864.26C3485.87 863.84 3478.47 861.54 3471.32 859.14C3457.2 854.39 3453.19 854.01 3435.82 855.71C3430.51 856.24 3426.94 856.19 3426.31 855.58C3424.9 854.22 3428.56 851.72 3431.75 851.87C3434.2 851.98 3434.19 852.02 3431.4 852.62C3429.79 852.97 3428.32 853.72 3428.13 854.3C3427.89 855.02 3432.11 854.96 3441.55 854.1C3449.12 853.41 3456.19 852.82 3457.26 852.8C3459.18 852.75 3459.18 852.74 3457.26 851.28C3456.19 850.48 3453.97 849.76 3452.32 849.69L3449.32 849.57L3452.32 848.68C3453.97 848.19 3456.89 846.4 3458.82 844.69C3464.85 839.34 3469.03 838.11 3483.41 837.49C3501.29 836.7 3505.02 835.07 3511.31 825.25C3517.91 814.96 3522.75 802.31 3524.81 789.95C3528.86 765.69 3530.46 741.93 3528.96 728.25C3528.15 720.92 3528.24 718.84 3529.39 717.04C3530.18 715.82 3530.82 714.02 3530.82 713.04C3530.83 708.35 3541 698.68 3561.32 684.06C3567.72 679.45 3585.82 669.75 3588.01 669.75C3588.52 669.75 3592.85 667.9 3597.63 665.64C3602.41 663.38 3611.49 659.81 3617.82 657.71C3624.14 655.61 3632.47 652.69 3636.32 651.22C3644.49 648.09 3655.68 644.6 3668.32 641.24C3673.27 639.92 3678.33 638.55 3679.57 638.18C3682.73 637.25 3682.55 640.04 3679.32 642.16C3677.94 643.06 3676.82 644.44 3676.82 645.22C3676.82 646.01 3675.13 647.9 3673.07 649.42C3671 650.95 3667.68 653.79 3665.67 655.73C3663.67 657.67 3658.49 662.26 3654.17 665.94C3649.85 669.62 3640.62 677.49 3633.67 683.44C3617.04 697.66 3602.17 708.88 3592.39 714.61C3582.57 720.36 3580.48 723 3580.66 729.44C3580.73 732.08 3581.03 749.1 3581.32 767.25C3581.82 798.42 3581.74 800.75 3579.74 809.25C3577.46 818.92 3576.93 825.26 3578.18 827.91C3578.75 829.11 3578.39 829.75 3576.89 830.23C3573.69 831.24 3574.43 832.59 3578.57 833.31C3580.63 833.66 3586.82 835.2 3592.32 836.73C3610.34 841.74 3626.06 842.94 3645.82 840.83C3650.49 840.32 3660.39 839.64 3667.82 839.3C3680.1 838.74 3685.12 838.31 3704.57 836.16C3709.06 835.66 3710.82 835.8 3710.82 836.63C3710.82 838.57 3707.05 839.42 3690.82 841.16C3682.29 842.07 3669.47 843.5 3662.32 844.34C3619.24 849.37 3621.82 848.9 3621.82 851.76C3621.82 852.86 3623 853.97 3624.88 854.62C3631.55 856.95 3683.45 860.86 3696.85 860.04C3703.89 859.61 3705.61 859.8 3706.71 861.13C3707.84 862.48 3707.78 862.83 3706.37 863.37C3704.16 864.22 3654.37 863.14 3635.32 861.83C3627.07 861.26 3616.83 860.56 3612.57 860.28C3604.15 859.71 3596.7 860.52 3578.46 863.95C3568.27 865.87 3566.48 866.5 3565.77 868.37C3565.31 869.57 3564.49 870.83 3563.95 871.17C3563.41 871.5 3560.87 875.26 3558.32 879.52C3555.77 883.77 3551.89 889.73 3549.71 892.75C3547.52 895.78 3543.43 901.63 3540.6 905.75C3537.77 909.88 3531.9 917.95 3527.55 923.69L3519.64 934.13L3520.35 950.69C3521.87 986.19 3520.82 996.34 3511.86 1032.51C3509.05 1043.85 3502.59 1056.35 3501.44 1052.69ZM3478.36 854.97L3475.52 852.25L3477.77 855.56C3479.02 857.38 3480.3 858.6 3480.62 858.28C3480.95 857.96 3479.93 856.47 3478.36 854.97ZM3475.31 854.75C3474.31 853.64 3473.28 852.96 3473.01 853.22C3472.34 853.89 3474.83 856.75 3476.09 856.75C3476.66 856.75 3476.31 855.85 3475.31 854.75ZM3482.32 854.75C3481.32 853.65 3480.06 852.75 3479.51 852.75C3478.96 852.75 3479.32 853.65 3480.32 854.75C3481.31 855.85 3482.58 856.75 3483.13 856.75C3483.68 856.75 3483.31 855.85 3482.32 854.75ZM3485.6 854.56C3484.8 853.35 3483.51 852.16 3482.73 851.92C3481.95 851.68 3482.41 852.66 3483.74 854.11C3486.69 857.32 3487.58 857.53 3485.6 854.56ZM3489.39 854.23C3487.33 852.68 3486.19 852.92 3487.27 854.69C3487.64 855.27 3488.69 855.74 3489.62 855.72C3491.11 855.69 3491.08 855.51 3489.39 854.23ZM3462.82 854.37C3462.82 854.17 3462.03 853.38 3461.07 852.62C3459.48 851.38 3459.44 851.42 3460.69 853C3461.99 854.67 3462.82 855.2 3462.82 854.37ZM3437.32 850.81C3440.36 849.98 3449.5 849.44 3448.73 850.13C3448.5 850.34 3445.17 850.76 3441.32 851.06C3436.9 851.42 3435.42 851.32 3437.32 850.81Z" fill="black"/>
</g>
</g>
<g id="layer1_2">
<path id="path1886_2" d="M4684.44 840.694C4683.48 837.624 4682.65 833.624 4679.34 816.064C4677.46 806.054 4674.78 794.584 4673.4 790.564C4671.18 784.074 4670.46 780.864 4669.5 773.154C4669.35 771.994 4668.49 769.904 4667.58 768.514C4666.66 767.114 4664.96 762.884 4663.81 759.114C4662.65 755.344 4660.84 749.554 4659.78 746.254C4656.4 735.674 4654.82 724.794 4655.24 715.064C4655.7 704.304 4657.65 699.874 4666.26 689.994C4669.18 686.654 4672.45 682.644 4673.53 681.084C4675.86 677.724 4682.82 660.684 4682.82 658.334C4682.82 656.584 4676.83 653.564 4670.78 652.264C4668.87 651.844 4661.47 649.544 4654.32 647.144C4640.2 642.394 4636.19 642.014 4618.82 643.714C4613.51 644.244 4609.94 644.194 4609.31 643.584C4607.9 642.224 4611.56 639.724 4614.75 639.874C4617.2 639.984 4617.19 640.024 4614.39 640.624C4612.79 640.974 4611.32 641.724 4611.13 642.304C4610.89 643.024 4615.11 642.964 4624.55 642.104C4632.12 641.414 4639.19 640.824 4640.26 640.804C4642.18 640.754 4642.18 640.744 4640.26 639.284C4639.19 638.484 4636.97 637.764 4635.32 637.694L4632.32 637.574L4635.32 636.684C4636.97 636.194 4639.89 634.404 4641.82 632.694C4647.85 627.344 4652.03 626.114 4666.41 625.494C4684.29 624.704 4688.02 623.074 4694.31 613.254C4700.91 602.964 4705.75 590.314 4707.81 577.954C4711.86 553.694 4713.46 529.934 4711.96 516.254C4711.15 508.924 4711.24 506.844 4712.39 505.044C4713.18 503.824 4713.82 502.024 4713.82 501.044C4713.83 496.354 4724 486.684 4744.32 472.064C4750.72 467.454 4768.82 457.754 4771.01 457.754C4771.52 457.754 4775.85 455.904 4780.63 453.644C4785.41 451.384 4794.49 447.814 4800.82 445.714C4807.14 443.614 4815.47 440.694 4819.32 439.224C4827.49 436.094 4838.68 432.604 4851.32 429.244C4856.27 427.924 4861.33 426.554 4862.57 426.184C4865.73 425.254 4865.55 428.044 4862.32 430.164C4860.94 431.064 4859.82 432.444 4859.82 433.224C4859.82 434.014 4858.13 435.904 4856.07 437.424C4854 438.954 4850.68 441.794 4848.67 443.734C4846.67 445.674 4841.49 450.264 4837.17 453.944C4832.85 457.624 4823.62 465.494 4816.67 471.444C4800.04 485.664 4785.17 496.884 4775.39 502.614C4765.57 508.364 4763.48 511.004 4763.66 517.444C4763.73 520.084 4764.03 537.104 4764.32 555.254C4764.82 586.424 4764.74 588.754 4762.74 597.254C4760.46 606.924 4759.93 613.264 4761.18 615.914C4761.75 617.114 4761.39 617.754 4759.89 618.234C4756.69 619.244 4757.43 620.594 4761.57 621.314C4763.63 621.664 4769.82 623.204 4775.32 624.734C4793.34 629.744 4809.06 630.944 4828.82 628.834C4833.49 628.324 4843.39 627.644 4850.82 627.304C4863.1 626.744 4868.12 626.314 4887.57 624.164C4892.06 623.664 4893.82 623.804 4893.82 624.634C4893.82 626.574 4890.05 627.424 4873.82 629.164C4865.29 630.074 4852.47 631.504 4845.32 632.344C4802.24 637.374 4804.82 636.904 4804.82 639.764C4804.82 640.864 4806 641.974 4807.88 642.624C4814.55 644.954 4866.45 648.864 4879.85 648.044C4886.89 647.614 4888.61 647.804 4889.71 649.134C4890.84 650.484 4890.78 650.834 4889.37 651.374C4887.16 652.224 4837.37 651.144 4818.32 649.834C4810.07 649.264 4799.83 648.564 4795.57 648.284C4787.15 647.714 4779.7 648.524 4761.46 651.954C4751.27 653.874 4749.48 654.504 4748.77 656.374C4748.31 657.574 4747.49 658.834 4746.95 659.174C4746.41 659.504 4743.87 663.264 4741.32 667.524C4738.77 671.774 4734.89 677.734 4732.71 680.754C4730.52 683.784 4726.43 689.634 4723.6 693.754C4720.77 697.884 4714.9 705.954 4710.55 711.694L4702.64 722.134L4703.35 738.694C4704.87 774.194 4703.82 784.344 4694.86 820.514C4692.05 831.854 4685.59 844.354 4684.44 840.694ZM4661.36 642.974L4658.52 640.254L4660.77 643.564C4662.02 645.384 4663.3 646.604 4663.62 646.284C4663.95 645.964 4662.93 644.474 4661.36 642.974ZM4658.31 642.754C4657.31 641.644 4656.28 640.964 4656.01 641.224C4655.34 641.894 4657.83 644.754 4659.09 644.754C4659.66 644.754 4659.31 643.854 4658.31 642.754ZM4665.32 642.754C4664.32 641.654 4663.06 640.754 4662.51 640.754C4661.96 640.754 4662.32 641.654 4663.32 642.754C4664.31 643.854 4665.58 644.754 4666.13 644.754C4666.68 644.754 4666.31 643.854 4665.32 642.754ZM4668.6 642.564C4667.8 641.354 4666.51 640.164 4665.73 639.924C4664.95 639.684 4665.41 640.664 4666.74 642.114C4669.69 645.324 4670.58 645.534 4668.6 642.564ZM4672.39 642.234C4670.33 640.684 4669.19 640.924 4670.27 642.694C4670.64 643.274 4671.69 643.744 4672.62 643.724C4674.11 643.694 4674.08 643.514 4672.39 642.234ZM4645.82 642.374C4645.82 642.174 4645.03 641.384 4644.07 640.624C4642.48 639.384 4642.44 639.424 4643.69 641.004C4644.99 642.674 4645.82 643.204 4645.82 642.374ZM4620.32 638.814C4623.36 637.984 4632.5 637.444 4631.73 638.134C4631.5 638.344 4628.17 638.764 4624.32 639.064C4619.9 639.424 4618.42 639.324 4620.32 638.814Z" fill="black"/>
</g>
<g id="layer1_3">
<path id="path1886_3" d="M5129.44 1255.69C5128.48 1252.62 5127.65 1248.62 5124.34 1231.06C5122.46 1221.05 5119.78 1209.58 5118.4 1205.56C5116.18 1199.07 5115.46 1195.86 5114.5 1188.15C5114.35 1186.99 5113.49 1184.9 5112.58 1183.51C5111.66 1182.11 5109.96 1177.88 5108.81 1174.11C5107.65 1170.34 5105.84 1164.55 5104.78 1161.25C5101.4 1150.67 5099.82 1139.79 5100.24 1130.06C5100.7 1119.3 5102.65 1114.87 5111.26 1104.99C5114.18 1101.65 5117.45 1097.64 5118.53 1096.08C5120.86 1092.72 5127.82 1075.68 5127.82 1073.33C5127.82 1071.58 5121.83 1068.56 5115.78 1067.26C5113.87 1066.84 5106.47 1064.54 5099.32 1062.14C5085.2 1057.39 5081.19 1057.01 5063.82 1058.71C5058.51 1059.24 5054.94 1059.19 5054.31 1058.58C5052.9 1057.22 5056.56 1054.72 5059.75 1054.87C5062.2 1054.98 5062.19 1055.02 5059.39 1055.62C5057.79 1055.97 5056.32 1056.72 5056.13 1057.3C5055.89 1058.02 5060.11 1057.96 5069.55 1057.1C5077.12 1056.41 5084.19 1055.82 5085.26 1055.8C5087.18 1055.75 5087.18 1055.74 5085.26 1054.28C5084.19 1053.48 5081.97 1052.76 5080.32 1052.69L5077.32 1052.57L5080.32 1051.68C5081.97 1051.19 5084.89 1049.4 5086.82 1047.69C5092.85 1042.34 5097.03 1041.11 5111.41 1040.49C5129.29 1039.7 5133.02 1038.07 5139.31 1028.25C5145.91 1017.96 5150.75 1005.31 5152.81 992.954C5156.86 968.694 5158.46 944.934 5156.96 931.254C5156.15 923.924 5156.24 921.844 5157.39 920.044C5158.18 918.824 5158.82 917.024 5158.82 916.044C5158.83 911.354 5169 901.684 5189.32 887.064C5195.72 882.454 5213.82 872.754 5216.01 872.754C5216.52 872.754 5220.85 870.904 5225.63 868.644C5230.41 866.384 5239.49 862.814 5245.82 860.714C5252.14 858.614 5260.47 855.694 5264.32 854.224C5272.49 851.094 5283.68 847.604 5296.32 844.244C5301.27 842.924 5306.33 841.554 5307.57 841.184C5310.73 840.254 5310.55 843.044 5307.32 845.164C5305.94 846.064 5304.82 847.444 5304.82 848.224C5304.82 849.014 5303.13 850.904 5301.07 852.424C5299 853.954 5295.68 856.794 5293.67 858.734C5291.67 860.674 5286.49 865.264 5282.17 868.944C5277.85 872.624 5268.62 880.494 5261.67 886.444C5245.04 900.664 5230.17 911.884 5220.39 917.614C5210.57 923.364 5208.48 926.004 5208.66 932.444C5208.73 935.084 5209.03 952.104 5209.32 970.254C5209.82 1001.42 5209.74 1003.75 5207.74 1012.25C5205.46 1021.92 5204.93 1028.26 5206.18 1030.91C5206.75 1032.11 5206.39 1032.75 5204.89 1033.23C5201.69 1034.24 5202.43 1035.59 5206.57 1036.31C5208.63 1036.66 5214.82 1038.2 5220.32 1039.73C5238.34 1044.74 5254.06 1045.94 5273.82 1043.83C5278.49 1043.32 5288.39 1042.64 5295.82 1042.3C5308.1 1041.74 5313.12 1041.31 5332.57 1039.16C5337.06 1038.66 5338.82 1038.8 5338.82 1039.63C5338.82 1041.57 5335.05 1042.42 5318.82 1044.16C5310.29 1045.07 5297.47 1046.5 5290.32 1047.34C5247.24 1052.37 5249.82 1051.9 5249.82 1054.76C5249.82 1055.86 5251 1056.97 5252.88 1057.62C5259.55 1059.95 5311.45 1063.86 5324.85 1063.04C5331.89 1062.61 5333.61 1062.8 5334.71 1064.13C5335.84 1065.48 5335.78 1065.83 5334.37 1066.37C5332.16 1067.22 5282.37 1066.14 5263.32 1064.83C5255.07 1064.26 5244.83 1063.56 5240.57 1063.28C5232.15 1062.71 5224.7 1063.52 5206.46 1066.95C5196.27 1068.87 5194.48 1069.5 5193.77 1071.37C5193.31 1072.57 5192.49 1073.83 5191.95 1074.17C5191.41 1074.5 5188.87 1078.26 5186.32 1082.52C5183.77 1086.77 5179.89 1092.73 5177.71 1095.75C5175.52 1098.78 5171.43 1104.63 5168.6 1108.75C5165.77 1112.88 5159.9 1120.95 5155.55 1126.69L5147.64 1137.13L5148.35 1153.69C5149.87 1189.19 5148.82 1199.34 5139.86 1235.51C5137.05 1246.85 5130.59 1259.35 5129.44 1255.69ZM5106.36 1057.97L5103.52 1055.25L5105.77 1058.56C5107.02 1060.38 5108.3 1061.6 5108.62 1061.28C5108.95 1060.96 5107.93 1059.47 5106.36 1057.97ZM5103.31 1057.75C5102.31 1056.64 5101.28 1055.96 5101.01 1056.22C5100.34 1056.89 5102.83 1059.75 5104.09 1059.75C5104.66 1059.75 5104.31 1058.85 5103.31 1057.75ZM5110.32 1057.75C5109.32 1056.65 5108.06 1055.75 5107.51 1055.75C5106.96 1055.75 5107.32 1056.65 5108.32 1057.75C5109.31 1058.85 5110.58 1059.75 5111.13 1059.75C5111.68 1059.75 5111.31 1058.85 5110.32 1057.75ZM5113.6 1057.56C5112.8 1056.35 5111.51 1055.16 5110.73 1054.92C5109.95 1054.68 5110.41 1055.66 5111.74 1057.11C5114.69 1060.32 5115.58 1060.53 5113.6 1057.56ZM5117.39 1057.23C5115.33 1055.68 5114.19 1055.92 5115.27 1057.69C5115.64 1058.27 5116.69 1058.74 5117.62 1058.72C5119.11 1058.69 5119.08 1058.51 5117.39 1057.23ZM5090.82 1057.37C5090.82 1057.17 5090.03 1056.38 5089.07 1055.62C5087.48 1054.38 5087.44 1054.42 5088.69 1056C5089.99 1057.67 5090.82 1058.2 5090.82 1057.37ZM5065.32 1053.81C5068.36 1052.98 5077.5 1052.44 5076.73 1053.13C5076.5 1053.34 5073.17 1053.76 5069.32 1054.06C5064.9 1054.42 5063.42 1054.32 5065.32 1053.81Z" fill="black"/>
</g>
<g id="Ellipse 6">
<ellipse cx="1234.5" cy="633.5" rx="426.5" ry="419.5" fill="#EFFAC3"/>
<path d="M1651 633.5C1651 859.505 1464.68 1043 1234.5 1043C1004.32 1043 818 859.505 818 633.5C818 407.495 1004.32 224 1234.5 224C1464.68 224 1651 407.495 1651 633.5Z" stroke="#C7CCA8" stroke-opacity="0.43" stroke-width="20"/>
</g>
</g>
</g>
</g>
<defs>
<clipPath id="clip0_29_49">
<rect width="284.81" height="415.34" fill="white" transform="translate(3426 638)"/>
</clipPath>
</defs>
</svg>
