<svg width="4531" height="1043" viewBox="0 0 4531 1043" fill="none" xmlns="http://www.w3.org/2000/svg">
<g id="Group 3">
<g id="first">
<g id="bird 3" clip-path="url(#clip0_27_41)">
<g id="layer1">
<path id="path1886" d="M2693.44 838.69C2692.48 835.62 2691.65 831.62 2688.34 814.06C2686.46 804.05 2683.78 792.58 2682.4 788.56C2680.18 782.07 2679.46 778.86 2678.5 771.15C2678.35 769.99 2677.49 767.9 2676.58 766.51C2675.66 765.11 2673.96 760.88 2672.81 757.11C2671.65 753.34 2669.84 747.55 2668.78 744.25C2665.4 733.67 2663.82 722.79 2664.24 713.06C2664.7 702.3 2666.65 697.87 2675.26 687.99C2678.18 684.65 2681.45 680.64 2682.53 679.08C2684.86 675.72 2691.82 658.68 2691.82 656.33C2691.82 654.58 2685.83 651.56 2679.78 650.26C2677.87 649.84 2670.47 647.54 2663.32 645.14C2649.2 640.39 2645.19 640.01 2627.82 641.71C2622.51 642.24 2618.94 642.19 2618.31 641.58C2616.9 640.22 2620.56 637.72 2623.75 637.87C2626.2 637.98 2626.19 638.02 2623.4 638.62C2621.79 638.97 2620.32 639.72 2620.13 640.3C2619.89 641.02 2624.11 640.96 2633.55 640.1C2641.12 639.41 2648.19 638.82 2649.26 638.8C2651.18 638.75 2651.18 638.74 2649.26 637.28C2648.19 636.48 2645.97 635.76 2644.32 635.69L2641.32 635.57L2644.32 634.68C2645.97 634.19 2648.89 632.4 2650.82 630.69C2656.85 625.34 2661.03 624.11 2675.41 623.49C2693.29 622.7 2697.02 621.07 2703.31 611.25C2709.91 600.96 2714.75 588.31 2716.81 575.95C2720.86 551.69 2722.46 527.93 2720.96 514.25C2720.15 506.92 2720.24 504.84 2721.39 503.04C2722.18 501.82 2722.82 500.02 2722.82 499.04C2722.83 494.35 2733 484.68 2753.32 470.06C2759.72 465.45 2777.82 455.75 2780.01 455.75C2780.52 455.75 2784.85 453.9 2789.63 451.64C2794.41 449.38 2803.49 445.81 2809.82 443.71C2816.14 441.61 2824.47 438.69 2828.32 437.22C2836.49 434.09 2847.68 430.6 2860.32 427.24C2865.27 425.92 2870.33 424.55 2871.57 424.18C2874.73 423.25 2874.55 426.04 2871.32 428.16C2869.94 429.06 2868.82 430.44 2868.82 431.22C2868.82 432.01 2867.13 433.9 2865.07 435.42C2863 436.95 2859.68 439.79 2857.67 441.73C2855.67 443.67 2850.49 448.26 2846.17 451.94C2841.85 455.62 2832.62 463.49 2825.67 469.44C2809.04 483.66 2794.17 494.88 2784.39 500.61C2774.57 506.36 2772.48 509 2772.66 515.44C2772.73 518.08 2773.03 535.1 2773.32 553.25C2773.82 584.42 2773.74 586.75 2771.74 595.25C2769.46 604.92 2768.93 611.26 2770.18 613.91C2770.75 615.11 2770.39 615.75 2768.89 616.23C2765.69 617.24 2766.43 618.59 2770.57 619.31C2772.63 619.66 2778.82 621.2 2784.32 622.73C2802.34 627.74 2818.06 628.94 2837.82 626.83C2842.49 626.32 2852.39 625.64 2859.82 625.3C2872.1 624.74 2877.12 624.31 2896.57 622.16C2901.06 621.66 2902.82 621.8 2902.82 622.63C2902.82 624.57 2899.05 625.42 2882.82 627.16C2874.29 628.07 2861.47 629.5 2854.32 630.34C2811.24 635.37 2813.82 634.9 2813.82 637.76C2813.82 638.86 2815 639.97 2816.88 640.62C2823.55 642.95 2875.45 646.86 2888.85 646.04C2895.89 645.61 2897.61 645.8 2898.71 647.13C2899.84 648.48 2899.78 648.83 2898.37 649.37C2896.16 650.22 2846.37 649.14 2827.32 647.83C2819.07 647.26 2808.83 646.56 2804.57 646.28C2796.15 645.71 2788.7 646.52 2770.46 649.95C2760.27 651.87 2758.48 652.5 2757.77 654.37C2757.31 655.57 2756.49 656.83 2755.95 657.17C2755.41 657.5 2752.87 661.26 2750.32 665.52C2747.77 669.77 2743.89 675.73 2741.71 678.75C2739.52 681.78 2735.43 687.63 2732.6 691.75C2729.77 695.88 2723.9 703.95 2719.55 709.69L2711.64 720.13L2712.35 736.69C2713.87 772.19 2712.82 782.34 2703.86 818.51C2701.05 829.85 2694.59 842.35 2693.44 838.69ZM2670.36 640.97L2667.52 638.25L2669.77 641.56C2671.02 643.38 2672.3 644.6 2672.62 644.28C2672.95 643.96 2671.93 642.47 2670.36 640.97ZM2667.31 640.75C2666.31 639.64 2665.28 638.96 2665.01 639.22C2664.34 639.89 2666.83 642.75 2668.09 642.75C2668.66 642.75 2668.31 641.85 2667.31 640.75ZM2674.32 640.75C2673.32 639.65 2672.06 638.75 2671.51 638.75C2670.96 638.75 2671.32 639.65 2672.32 640.75C2673.31 641.85 2674.58 642.75 2675.13 642.75C2675.68 642.75 2675.31 641.85 2674.32 640.75ZM2677.6 640.56C2676.8 639.35 2675.51 638.16 2674.73 637.92C2673.95 637.68 2674.41 638.66 2675.74 640.11C2678.69 643.32 2679.58 643.53 2677.6 640.56ZM2681.39 640.23C2679.33 638.68 2678.19 638.92 2679.27 640.69C2679.64 641.27 2680.69 641.74 2681.62 641.72C2683.11 641.69 2683.08 641.51 2681.39 640.23ZM2654.82 640.37C2654.82 640.17 2654.03 639.38 2653.07 638.62C2651.48 637.38 2651.44 637.42 2652.69 639C2653.99 640.67 2654.82 641.2 2654.82 640.37ZM2629.32 636.81C2632.36 635.98 2641.5 635.44 2640.73 636.13C2640.5 636.34 2637.17 636.76 2633.32 637.06C2628.9 637.42 2627.42 637.32 2629.32 636.81Z" fill="black"/>
</g>
</g>
<g id="layer1_2">
<path id="path1886_2" d="M3876.44 626.694C3875.48 623.624 3874.65 619.624 3871.34 602.064C3869.46 592.054 3866.78 580.584 3865.4 576.564C3863.18 570.074 3862.46 566.864 3861.5 559.154C3861.35 557.994 3860.49 555.904 3859.58 554.514C3858.66 553.114 3856.96 548.884 3855.81 545.114C3854.65 541.344 3852.84 535.554 3851.78 532.254C3848.4 521.674 3846.82 510.794 3847.24 501.064C3847.7 490.304 3849.65 485.874 3858.26 475.994C3861.18 472.654 3864.45 468.644 3865.53 467.084C3867.86 463.724 3874.82 446.684 3874.82 444.334C3874.82 442.584 3868.83 439.564 3862.78 438.264C3860.87 437.844 3853.47 435.544 3846.32 433.144C3832.2 428.394 3828.19 428.014 3810.82 429.714C3805.51 430.244 3801.94 430.194 3801.31 429.584C3799.9 428.224 3803.56 425.724 3806.75 425.874C3809.2 425.984 3809.19 426.024 3806.39 426.624C3804.79 426.974 3803.32 427.724 3803.13 428.304C3802.89 429.024 3807.11 428.964 3816.55 428.104C3824.12 427.414 3831.19 426.824 3832.26 426.804C3834.18 426.754 3834.18 426.744 3832.26 425.284C3831.19 424.484 3828.97 423.764 3827.32 423.694L3824.32 423.574L3827.32 422.684C3828.97 422.194 3831.89 420.404 3833.82 418.694C3839.85 413.344 3844.03 412.114 3858.41 411.494C3876.29 410.704 3880.02 409.074 3886.31 399.254C3892.91 388.964 3897.75 376.314 3899.81 363.954C3903.86 339.694 3905.46 315.934 3903.96 302.254C3903.15 294.924 3903.24 292.844 3904.39 291.044C3905.18 289.824 3905.82 288.024 3905.82 287.044C3905.83 282.354 3916 272.684 3936.32 258.064C3942.72 253.454 3960.82 243.754 3963.01 243.754C3963.52 243.754 3967.85 241.904 3972.63 239.644C3977.41 237.384 3986.49 233.814 3992.82 231.714C3999.14 229.614 4007.47 226.694 4011.32 225.224C4019.49 222.094 4030.68 218.604 4043.32 215.244C4048.27 213.924 4053.33 212.554 4054.57 212.184C4057.73 211.254 4057.55 214.044 4054.32 216.164C4052.94 217.064 4051.82 218.444 4051.82 219.224C4051.82 220.014 4050.13 221.904 4048.07 223.424C4046 224.954 4042.68 227.794 4040.67 229.734C4038.67 231.674 4033.49 236.264 4029.17 239.944C4024.85 243.624 4015.62 251.494 4008.67 257.444C3992.04 271.664 3977.17 282.884 3967.39 288.614C3957.57 294.364 3955.48 297.004 3955.66 303.444C3955.73 306.084 3956.03 323.104 3956.32 341.254C3956.82 372.424 3956.74 374.754 3954.74 383.254C3952.46 392.924 3951.93 399.264 3953.18 401.914C3953.75 403.114 3953.39 403.754 3951.89 404.234C3948.69 405.244 3949.43 406.594 3953.57 407.314C3955.63 407.664 3961.82 409.204 3967.32 410.734C3985.34 415.744 4001.06 416.944 4020.82 414.834C4025.49 414.324 4035.39 413.644 4042.82 413.304C4055.1 412.744 4060.12 412.314 4079.57 410.164C4084.06 409.664 4085.82 409.804 4085.82 410.634C4085.82 412.574 4082.05 413.424 4065.82 415.164C4057.29 416.074 4044.47 417.504 4037.32 418.344C3994.24 423.374 3996.82 422.904 3996.82 425.764C3996.82 426.864 3998 427.974 3999.88 428.624C4006.55 430.954 4058.45 434.864 4071.85 434.044C4078.89 433.614 4080.61 433.804 4081.71 435.134C4082.84 436.484 4082.78 436.834 4081.37 437.374C4079.16 438.224 4029.37 437.144 4010.32 435.834C4002.07 435.264 3991.83 434.564 3987.57 434.284C3979.15 433.714 3971.7 434.524 3953.46 437.954C3943.27 439.874 3941.48 440.504 3940.77 442.374C3940.31 443.574 3939.49 444.834 3938.95 445.174C3938.41 445.504 3935.87 449.264 3933.32 453.524C3930.77 457.774 3926.89 463.734 3924.71 466.754C3922.52 469.784 3918.43 475.634 3915.6 479.754C3912.77 483.884 3906.9 491.954 3902.55 497.694L3894.64 508.134L3895.35 524.694C3896.87 560.194 3895.82 570.344 3886.86 606.514C3884.05 617.854 3877.59 630.354 3876.44 626.694ZM3853.36 428.974L3850.52 426.254L3852.77 429.564C3854.02 431.384 3855.3 432.604 3855.62 432.284C3855.95 431.964 3854.93 430.474 3853.36 428.974ZM3850.31 428.754C3849.31 427.644 3848.28 426.964 3848.01 427.224C3847.34 427.894 3849.83 430.754 3851.09 430.754C3851.66 430.754 3851.31 429.854 3850.31 428.754ZM3857.32 428.754C3856.32 427.654 3855.06 426.754 3854.51 426.754C3853.96 426.754 3854.32 427.654 3855.32 428.754C3856.31 429.854 3857.58 430.754 3858.13 430.754C3858.68 430.754 3858.31 429.854 3857.32 428.754ZM3860.6 428.564C3859.8 427.354 3858.51 426.164 3857.73 425.924C3856.95 425.684 3857.41 426.664 3858.74 428.114C3861.69 431.324 3862.58 431.534 3860.6 428.564ZM3864.39 428.234C3862.33 426.684 3861.19 426.924 3862.27 428.694C3862.64 429.274 3863.69 429.744 3864.62 429.724C3866.11 429.694 3866.08 429.514 3864.39 428.234ZM3837.82 428.374C3837.82 428.174 3837.03 427.384 3836.07 426.624C3834.48 425.384 3834.44 425.424 3835.69 427.004C3836.99 428.674 3837.82 429.204 3837.82 428.374ZM3812.32 424.814C3815.36 423.984 3824.5 423.444 3823.73 424.134C3823.5 424.344 3820.17 424.764 3816.32 425.064C3811.9 425.424 3810.42 425.324 3812.32 424.814Z" fill="black"/>
</g>
<g id="layer1_3">
<path id="path1886_3" d="M4321.44 1041.69C4320.48 1038.62 4319.65 1034.62 4316.34 1017.06C4314.46 1007.05 4311.78 995.584 4310.4 991.564C4308.18 985.074 4307.46 981.864 4306.5 974.154C4306.35 972.994 4305.49 970.904 4304.58 969.514C4303.66 968.114 4301.96 963.884 4300.81 960.114C4299.65 956.344 4297.84 950.554 4296.78 947.254C4293.4 936.674 4291.82 925.794 4292.24 916.064C4292.7 905.304 4294.65 900.874 4303.26 890.994C4306.18 887.654 4309.45 883.644 4310.53 882.084C4312.86 878.724 4319.82 861.684 4319.82 859.334C4319.82 857.584 4313.83 854.564 4307.78 853.264C4305.87 852.844 4298.47 850.544 4291.32 848.144C4277.2 843.394 4273.19 843.014 4255.82 844.714C4250.51 845.244 4246.94 845.194 4246.31 844.584C4244.9 843.224 4248.56 840.724 4251.75 840.874C4254.2 840.984 4254.19 841.024 4251.39 841.624C4249.79 841.974 4248.32 842.724 4248.13 843.304C4247.89 844.024 4252.11 843.964 4261.55 843.104C4269.12 842.414 4276.19 841.824 4277.26 841.804C4279.18 841.754 4279.18 841.744 4277.26 840.284C4276.19 839.484 4273.97 838.764 4272.32 838.694L4269.32 838.574L4272.32 837.684C4273.97 837.194 4276.89 835.404 4278.82 833.694C4284.85 828.344 4289.03 827.114 4303.41 826.494C4321.29 825.704 4325.02 824.074 4331.31 814.254C4337.91 803.964 4342.75 791.314 4344.81 778.954C4348.86 754.694 4350.46 730.934 4348.96 717.254C4348.15 709.924 4348.24 707.844 4349.39 706.044C4350.18 704.824 4350.82 703.024 4350.82 702.044C4350.83 697.354 4361 687.684 4381.32 673.064C4387.72 668.454 4405.82 658.754 4408.01 658.754C4408.52 658.754 4412.85 656.904 4417.63 654.644C4422.41 652.384 4431.49 648.814 4437.82 646.714C4444.14 644.614 4452.47 641.694 4456.32 640.224C4464.49 637.094 4475.68 633.604 4488.32 630.244C4493.27 628.924 4498.33 627.554 4499.57 627.184C4502.73 626.254 4502.55 629.044 4499.32 631.164C4497.94 632.064 4496.82 633.444 4496.82 634.224C4496.82 635.014 4495.13 636.904 4493.07 638.424C4491 639.954 4487.68 642.794 4485.67 644.734C4483.67 646.674 4478.49 651.264 4474.17 654.944C4469.85 658.624 4460.62 666.494 4453.67 672.444C4437.04 686.664 4422.17 697.884 4412.39 703.614C4402.57 709.364 4400.48 712.004 4400.66 718.444C4400.73 721.084 4401.03 738.104 4401.32 756.254C4401.82 787.424 4401.74 789.754 4399.74 798.254C4397.46 807.924 4396.93 814.264 4398.18 816.914C4398.75 818.114 4398.39 818.754 4396.89 819.234C4393.69 820.244 4394.43 821.594 4398.57 822.314C4400.63 822.664 4406.82 824.204 4412.32 825.734C4430.34 830.744 4446.06 831.944 4465.82 829.834C4470.49 829.324 4480.39 828.644 4487.82 828.304C4500.1 827.744 4505.12 827.314 4524.57 825.164C4529.06 824.664 4530.82 824.804 4530.82 825.634C4530.82 827.574 4527.05 828.424 4510.82 830.164C4502.29 831.074 4489.47 832.504 4482.32 833.344C4439.24 838.374 4441.82 837.904 4441.82 840.764C4441.82 841.864 4443 842.974 4444.88 843.624C4451.55 845.954 4503.45 849.864 4516.85 849.044C4523.89 848.614 4525.61 848.804 4526.71 850.134C4527.84 851.484 4527.78 851.834 4526.37 852.374C4524.16 853.224 4474.37 852.144 4455.32 850.834C4447.07 850.264 4436.83 849.564 4432.57 849.284C4424.15 848.714 4416.7 849.524 4398.46 852.954C4388.27 854.874 4386.48 855.504 4385.77 857.374C4385.31 858.574 4384.49 859.834 4383.95 860.174C4383.41 860.504 4380.87 864.264 4378.32 868.524C4375.77 872.774 4371.89 878.734 4369.71 881.754C4367.52 884.784 4363.43 890.634 4360.6 894.754C4357.77 898.884 4351.9 906.954 4347.55 912.694L4339.64 923.134L4340.35 939.694C4341.87 975.194 4340.82 985.344 4331.86 1021.51C4329.05 1032.85 4322.59 1045.35 4321.44 1041.69ZM4298.36 843.974L4295.52 841.254L4297.77 844.564C4299.02 846.384 4300.3 847.604 4300.62 847.284C4300.95 846.964 4299.93 845.474 4298.36 843.974ZM4295.31 843.754C4294.31 842.644 4293.28 841.964 4293.01 842.224C4292.34 842.894 4294.83 845.754 4296.09 845.754C4296.66 845.754 4296.31 844.854 4295.31 843.754ZM4302.32 843.754C4301.32 842.654 4300.06 841.754 4299.51 841.754C4298.96 841.754 4299.32 842.654 4300.32 843.754C4301.31 844.854 4302.58 845.754 4303.13 845.754C4303.68 845.754 4303.31 844.854 4302.32 843.754ZM4305.6 843.564C4304.8 842.354 4303.51 841.164 4302.73 840.924C4301.95 840.684 4302.41 841.664 4303.74 843.114C4306.69 846.324 4307.58 846.534 4305.6 843.564ZM4309.39 843.234C4307.33 841.684 4306.19 841.924 4307.27 843.694C4307.64 844.274 4308.69 844.744 4309.62 844.724C4311.11 844.694 4311.08 844.514 4309.39 843.234ZM4282.82 843.374C4282.82 843.174 4282.03 842.384 4281.07 841.624C4279.48 840.384 4279.44 840.424 4280.69 842.004C4281.99 843.674 4282.82 844.204 4282.82 843.374ZM4257.32 839.814C4260.36 838.984 4269.5 838.444 4268.73 839.134C4268.5 839.344 4265.17 839.764 4261.32 840.064C4256.9 840.424 4255.42 840.324 4257.32 839.814Z" fill="black"/>
</g>
<g id="Ellipse 6">
<ellipse cx="426.5" cy="419.5" rx="426.5" ry="419.5" fill="#EFFAC3"/>
<path d="M843 419.5C843 645.505 656.683 829 426.5 829C196.317 829 10 645.505 10 419.5C10 193.495 196.317 10 426.5 10C656.683 10 843 193.495 843 419.5Z" stroke="#C7CCA8" stroke-opacity="0.43" stroke-width="20"/>
</g>
</g>
</g>
<defs>
<clipPath id="clip0_27_41">
<rect width="284.81" height="415.34" fill="white" transform="translate(2618 424)"/>
</clipPath>
</defs>
</svg>
