<svg width="200" height="400" xmlns="http://www.w3.org/2000/svg">
  <!-- Tree trunk -->
  <path d="M100 300 Q90 200 110 200 Q130 200 120 300" fill="saddlebrown" />

  <!-- Tree branches -->
  <path d="M100 200 Q80 160 90 140 Q100 120 110 140 Q120 160 100 200" fill="saddlebrown" />
  <path d="M110 180 Q90 140 100 120 Q110 100 120 120 Q130 140 110 180" fill="saddlebrown" />
  <path d="M90 180 Q70 140 80 120 Q90 100 100 120 Q110 140 90 180" fill="saddlebrown" />
  
  <!-- Tree foliage -->
  <circle cx="80" cy="150" r="50" fill="forestgreen" />
  <circle cx="120" cy="150" r="50" fill="forestgreen" />
  <circle cx="100" cy="100" r="50" fill="forestgreen" />
  <circle cx="70" cy="120" r="40" fill="forestgreen" />
  <circle cx="130" cy="120" r="40" fill="forestgreen" />
  <circle cx="90" cy="70" r="30" fill="forestgreen" />
  <circle cx="110" cy="70" r="30" fill="forestgreen" />
</svg>
