<svg width="580" height="580" viewBox="0 0 580 580" fill="none" xmlns="http://www.w3.org/2000/svg">
<g id="online-learning-concept">
<path id="base" d="M555.833 571.944H28.463C24.9186 571.944 22.0186 569.044 22.0186 565.5V540.259C22.0186 536.715 24.9186 533.815 28.463 533.815H555.833C559.378 533.815 562.278 536.715 562.278 540.259V565.5C562.278 569.044 559.378 571.944 555.833 571.944Z" fill="#F7F7F7"/>
<path id="bg-circle" d="M297.519 542.407C396.582 542.407 476.889 462.101 476.889 363.037C476.889 263.974 396.582 183.667 297.519 183.667C198.455 183.667 118.148 263.974 118.148 363.037C118.148 462.101 198.455 542.407 297.519 542.407Z" fill="#F3FAFF"/>
<path id="Vector" d="M518.778 490.261C522.591 480.541 526.457 469.746 522.859 459.972C522 457.609 520.657 455.085 521.463 452.669C522.537 449.393 526.833 448.265 528.23 445.15C529.841 441.713 527.317 437.739 527.961 434.033C528.606 430.274 532.311 427.804 535.909 426.461C539.507 425.119 543.428 424.259 546.328 421.789C551.859 416.956 551.215 408.309 549.98 401.006C548.744 393.756 547.831 385.163 553.148 380.061C543.374 381.941 533.385 383.874 524.9 389.03C516.415 394.185 509.648 403.315 510.131 413.25C510.4 418.244 512.333 423.561 510.078 427.965C507.607 432.744 501.002 434.624 499.337 439.726C497.404 445.58 503.15 450.95 505.406 456.696C507.554 462.12 506.533 468.189 507.017 473.935C507.5 479.735 510.507 486.287 516.254 487.146L518.778 490.261Z" fill="#FFBE55"/>
<path id="leaf-2" opacity="0.31" d="M518.778 490.261C522.591 480.541 526.457 469.746 522.859 459.972C522 457.609 520.657 455.085 521.463 452.669C522.537 449.393 526.833 448.265 528.23 445.15C529.841 441.713 527.317 437.739 527.961 434.033C528.606 430.274 532.311 427.804 535.909 426.461C539.507 425.119 543.428 424.259 546.328 421.789C551.859 416.956 551.215 408.309 549.98 401.006C548.744 393.756 547.831 385.163 553.148 380.061C543.374 381.941 533.385 383.874 524.9 389.03C516.415 394.185 509.648 403.315 510.131 413.25C510.4 418.244 512.333 423.561 510.078 427.965C507.607 432.744 501.002 434.624 499.337 439.726C497.404 445.58 503.15 450.95 505.406 456.696C507.554 462.12 506.533 468.189 507.017 473.935C507.5 479.735 510.507 486.287 516.254 487.146L518.778 490.261Z" fill="white"/>
<path id="Vector_2" d="M514.857 477.533C514.75 449.285 520.228 390.157 552.826 380.276" stroke="white" stroke-width="0.75" stroke-miterlimit="10" stroke-linecap="round"/>
<path id="leaf-1" d="M496.061 487.898C490.261 477.05 484.246 464.967 487.093 452.991C487.791 450.091 488.972 446.976 487.737 444.237C486.072 440.585 480.863 439.78 478.769 436.343C476.459 432.583 478.822 427.535 477.533 423.293C476.244 418.943 471.572 416.633 467.222 415.506C462.872 414.432 458.146 414.002 454.387 411.424C447.244 406.537 446.815 396.28 447.244 387.633C447.674 378.987 447.567 368.783 440.639 363.574C452.346 364.433 464.322 365.346 474.956 370.233C485.589 375.12 494.826 384.894 495.578 396.602C495.954 402.456 494.396 408.954 497.672 413.841C501.217 419.104 509.219 420.393 511.904 426.139C514.965 432.744 509.004 439.78 507.124 446.815C505.406 453.42 507.393 460.402 507.607 467.222C507.822 474.043 505.191 482.152 498.585 483.978L496.061 487.898Z" fill="#FFBE55"/>
<path id="Vector_3" d="M498.907 472.432C495.148 439.296 480.648 370.824 441.068 363.789" stroke="white" stroke-width="0.75" stroke-miterlimit="10" stroke-linecap="round"/>
<path id="Vector_4" d="M532.741 551.537H481.722C478.178 551.537 475.278 548.637 475.278 545.093L470.981 471.519C470.981 467.974 473.881 465.074 477.426 465.074H537.037C540.581 465.074 543.481 467.974 543.481 471.519L539.185 545.093C539.185 548.637 536.285 551.537 532.741 551.537Z" fill="#CCE9FF"/>
<g id="pencil-1">
<path id="Vector_5" d="M68.7407 287.205L101.661 282.213L124.042 429.822L91.1225 434.814L68.7407 287.205Z" fill="#FFBE55"/>
<path id="Vector_6" d="M84.9452 285.587L101.405 283.091L123.787 430.7L107.327 433.196L84.9452 285.587Z" fill="#FFBE55"/>
<path id="Vector_7" d="M101.661 286.187L68.7407 291.182L76.4741 271.365L80.8778 260.194L88.3963 269.593L101.661 286.187Z" fill="#FFEBC2"/>
<path id="Vector_8" d="M88.1815 266.639L76.2593 268.411L80.663 257.241L88.1815 266.639Z" fill="#0E538C"/>
</g>
<g id="pencil-2">
<path id="Vector_9" d="M123.408 276.779L156.571 279.749L143.256 428.448L110.093 425.478L123.408 276.779Z" fill="#FFBE55"/>
<path id="Vector_10" d="M138.948 278.813L155.529 280.298L142.213 428.997L125.632 427.512L138.948 278.813Z" fill="#FFBE55"/>
<path id="Vector_11" d="M155.515 280.441L122.326 277.487L134.57 260.087L141.498 250.259L146.546 261.161L155.515 280.441Z" fill="#FFEBC2"/>
<path id="Vector_12" d="M146.546 261.161L134.57 260.087L141.498 250.259L146.546 261.161Z" fill="#0E538C"/>
</g>
<path id="Vector_13" d="M185.546 551.537H54.7241L37.5927 349.074H196.019L185.546 551.537Z" fill="#CCE9FF"/>
<path id="Vector_14" opacity="0.5" d="M116.806 551.537H185.546L196.019 349.074H116.806V551.537Z" fill="#CCE9FF"/>
<path id="Vector_15" d="M144.463 494.933H476.889V540.635H144.463V494.933Z" fill="#FFEBC2"/>
<path id="Vector_16" d="M145.859 494.933V540.635H494.611V544.072C494.611 548.315 490.906 551.752 486.341 551.752H147.363C136.569 551.752 127.815 543.696 127.815 533.707V503.15C127.815 493.161 136.569 485.106 147.363 485.106H486.341C490.906 485.106 494.611 488.543 494.611 492.785V494.987H145.859V494.933Z" fill="#FFBE55"/>
<path id="Vector_17" d="M144.463 515.287H476.889V540.582H144.463V515.287Z" fill="#FFEBC2"/>
<path id="Vector_18" d="M187.426 439.296H457.556V479.037H187.426V439.296Z" fill="#CCE9FF"/>
<path id="Vector_19" d="M187.426 439.296V479.037H467.759V482.044C467.759 485.75 464.752 488.704 461.1 488.704H188.607C179.961 488.704 172.926 481.668 172.926 473.022V446.439C172.926 437.793 179.961 430.757 188.607 430.757H461.1C464.752 430.757 467.759 433.765 467.759 437.417V439.35H187.426V439.296Z" fill="#2A94F4"/>
<path id="Vector_20" d="M304.178 304.017C300.472 299.13 300.15 292.417 303.641 287.315C306.433 283.233 308.313 278.185 308.098 274.48C307.669 267.82 303.533 261.698 297.894 258.046C290.483 253.213 280.602 252.515 272.6 256.274C264.598 260.033 258.798 268.089 257.778 276.843C257.026 283.126 258.476 290 255.254 295.478C252.891 299.398 248.541 301.707 244.244 303.265C239.894 304.769 235.33 305.789 231.356 308.098C227.381 310.407 223.998 314.382 224.052 319C224.106 322.491 226.093 325.713 226.307 329.15C226.63 334.198 223.085 338.656 219.326 341.985C215.513 345.315 211.163 348.215 208.585 352.565C204.343 359.761 206.33 369.482 211.7 375.926C217.07 382.37 225.126 385.969 233.181 388.063C255.2 393.863 278.4 390.104 301.117 389.728C308.152 389.62 315.348 389.835 322.169 388.063C328.989 386.291 335.648 382.209 338.494 375.765C341.394 369.32 339.944 361.48 336.078 355.626C332.211 349.772 326.143 345.53 319.752 342.522C315.133 340.32 310.193 338.602 306.433 335.165C302.674 331.728 300.472 325.874 302.996 321.417C303.963 319.698 305.574 318.356 306.487 316.637C308.313 313.307 307.561 309.065 305.52 305.843C305.144 305.306 304.715 304.715 304.178 304.017Z" fill="#0E538C"/>
<path id="Vector_21" d="M187.426 457.019H457.556V479.037H187.426V457.019Z" fill="#CCE9FF"/>
<path id="left-leg" d="M309.333 400.63L342.63 424.259L383.444 508.574H375.926L330.278 433.926C330.278 433.926 314.704 434.463 309.333 429.63C303.963 424.796 273.083 403.852 273.083 403.852L309.333 400.63Z" fill="#0B4870"/>
<path id="right-leg" d="M250.42 393.863C244.352 410.296 248.648 433.389 269.055 434.463C289.463 435.537 295.907 434.463 295.907 434.463L335.648 515.019H344.778L313.63 424.796L275.768 403.852L250.42 393.863Z" fill="#0E538C"/>
<path id="Vector_22" d="M281.407 300.204C286.778 307.185 299.667 326.519 304.5 348C309.333 369.482 322.759 400.63 322.759 400.63H307.185L292.148 349.611L278.185 301.815L281.407 300.204Z" fill="#4EA3FB"/>
<path id="Vector_23" d="M297.948 271.687C298.754 284.844 293.007 293.867 284.791 294.296C276.574 294.726 271.204 282.804 273.674 271.687C279.42 261.806 287.261 261 287.261 261H292.202L297.948 271.687Z" fill="#FFE3CA"/>
<path id="Vector_24" d="M292.47 263.846C290.967 268.465 287.637 272.439 283.341 274.694C279.044 276.95 273.889 277.487 269.217 276.091L280.924 259.389H290.967L300.58 267.015L299.13 275.769C295.37 272.922 292.47 263.846 292.47 263.846Z" fill="#0E538C"/>
<path id="Vector_25" d="M282.32 292.739C280.602 299.398 281.139 306.38 281.139 307.454C279.528 309.602 272.009 309.065 270.935 301.546C272.546 291.88 275.769 281.139 275.769 281.139L278.454 287.046L282.32 292.739Z" fill="#FFE3CA"/>
<path id="Vector_26" d="M272.009 295.854C265.296 298.056 242.741 308.259 241.667 310.407C243.278 316.315 251.333 403.852 251.333 403.852H287.852C287.852 403.852 283.018 355.519 285.704 352.296C288.389 349.074 296.981 337.796 295.907 336.185C294.833 334.574 281.193 299.935 281.193 299.935L272.009 295.854Z" fill="#2A94F4"/>
<path id="Vector_27" d="M241.667 310.407C236.404 314.435 214.278 350.685 221.259 370.019C228.241 389.352 251.065 400.737 251.065 400.737V390.104C251.065 390.104 232.537 375.389 233.611 364.648C234.685 353.907 247.574 331.889 247.574 331.889L241.667 310.407Z" fill="#4EA3FB"/>
<path id="laptop" d="M328.183 410.028H249.131C246.661 410.028 244.62 407.987 244.62 405.517L242.472 354.928C242.472 352.457 244.513 350.417 246.983 350.417H329.257C331.728 350.417 333.768 352.457 333.768 354.928L332.694 405.517C332.694 407.987 330.654 410.028 328.183 410.028Z" fill="#FFBE55"/>
<path id="Vector_28" d="M343.489 515.019C348.806 516.2 356.002 522.054 359.439 525.061C360.137 525.652 359.707 526.833 358.741 526.833C353.209 526.726 340.696 526.135 337.796 523.665C334.037 520.443 335.111 515.072 335.111 515.072H343.489V515.019ZM383.337 508.359C388.063 509.648 394.293 515.126 397.407 518.08C398.106 518.724 397.569 519.852 396.656 519.798C391.446 519.422 380.276 518.402 377.752 515.985C374.422 512.87 375.657 507.983 375.657 507.983L383.337 508.359Z" fill="#1A87D8"/>
<path id="Vector_29" d="M288.389 388.278C292.838 388.278 296.444 384.671 296.444 380.222C296.444 375.773 292.838 372.167 288.389 372.167C283.94 372.167 280.333 375.773 280.333 380.222C280.333 384.671 283.94 388.278 288.389 388.278Z" fill="white"/>
<path id="bulb-container" d="M217.5 494.611L207.296 488.704L197.093 494.611V457.019H217.5V494.611ZM375.711 272.009C375.711 273.03 375.335 273.943 374.691 274.694C375.335 275.393 375.711 276.359 375.711 277.38V280.709C375.711 281.407 375.496 282.106 375.174 282.696C375.496 283.287 375.711 283.985 375.711 284.683V288.013C375.711 290.215 373.939 291.987 371.737 291.987H337.152C334.95 291.987 333.178 290.215 333.178 288.013V284.63C333.178 283.932 333.393 283.233 333.715 282.643C333.393 282.052 333.178 281.354 333.178 280.656V277.326C333.178 276.306 333.554 275.393 334.198 274.641C333.554 273.943 333.178 272.976 333.178 271.956V268.626C333.178 266.424 334.95 264.652 337.152 264.652H371.737C373.939 264.652 375.711 266.424 375.711 268.626V272.009ZM403.315 196.717C403.315 216.104 392.037 232.806 375.711 240.754V258.798C375.711 260.141 374.583 261.269 373.241 261.269H335.648C334.306 261.269 333.178 260.141 333.178 258.798V240.754C316.852 232.859 305.574 216.104 305.574 196.717C305.574 169.704 327.431 147.846 354.444 147.846C381.457 147.846 403.315 169.757 403.315 196.717Z" fill="#FFBE55"/>
<path id="Vector_30" opacity="0.23" d="M371.093 274.963H338.333M371.093 282.481H338.333" stroke="#7F7F7F" stroke-width="2" stroke-miterlimit="10" stroke-linecap="round"/>
<path id="bulb-filament" d="M362.822 202.731C362.231 202.194 361.372 201.926 360.459 202.033C359.331 202.141 358.257 202.785 357.559 203.698C356.969 204.504 356.646 205.47 356.485 206.383C356.002 206.115 355.465 205.846 354.981 205.524L354.82 205.417H354.122L353.961 205.524C353.424 205.846 352.941 206.115 352.457 206.383C352.296 205.47 351.974 204.504 351.383 203.698C350.739 202.785 349.611 202.141 348.483 202.033C347.57 201.926 346.765 202.194 346.12 202.731C345.315 203.483 345.046 204.557 345.315 205.685C345.744 207.189 346.98 208.424 348.43 208.693C349.343 208.854 350.202 208.8 351.115 208.585C352.457 226.039 352.994 243.707 352.618 261.161H354.23C354.606 243.654 354.069 225.931 352.726 208.478C352.726 208.317 352.726 208.156 352.672 207.994C353.317 207.726 353.907 207.404 354.498 207.028C355.089 207.35 355.68 207.726 356.324 207.994C356.324 208.156 356.324 208.317 356.27 208.478C354.928 225.931 354.391 243.654 354.767 261.161H356.378C356.002 243.707 356.539 225.985 357.881 208.585C358.741 208.8 359.654 208.907 360.567 208.693C361.963 208.424 363.252 207.189 363.681 205.685C363.896 204.557 363.628 203.483 362.822 202.731ZM348.698 207.189C347.893 207.028 347.087 206.222 346.819 205.309C346.711 204.933 346.657 204.343 347.141 203.967C347.409 203.698 347.785 203.644 348.054 203.644H348.269C348.913 203.698 349.611 204.074 350.041 204.665C350.524 205.309 350.793 206.115 350.9 207.028C350.148 207.243 349.45 207.296 348.698 207.189ZM362.07 205.309C361.802 206.222 361.05 207.028 360.191 207.189C359.493 207.35 358.741 207.243 358.043 207.028C358.204 206.115 358.419 205.309 358.902 204.665C359.278 204.128 359.976 203.752 360.674 203.644C360.996 203.591 361.426 203.644 361.802 203.967C362.178 204.343 362.124 204.933 362.07 205.309Z" fill="white"/>
<path id="Vector_31" d="M341.555 156.815C329.741 161.111 310.407 176.685 312.018 201.926" stroke="white" stroke-width="4" stroke-miterlimit="10" stroke-linecap="round"/>
<path id="ball-4" d="M276.843 244.352C284.406 244.352 290.537 238.221 290.537 230.657C290.537 223.094 284.406 216.963 276.843 216.963C269.279 216.963 263.148 223.094 263.148 230.657C263.148 238.221 269.279 244.352 276.843 244.352Z" fill="#FFBE55"/>
<path id="ball-3" d="M423.454 191.722C426.865 191.722 429.63 188.957 429.63 185.546C429.63 182.135 426.865 179.37 423.454 179.37C420.043 179.37 417.278 182.135 417.278 185.546C417.278 188.957 420.043 191.722 423.454 191.722Z" fill="#FFBE55"/>
<path id="ball-2" d="M403.315 292.685C408.95 292.685 413.518 288.117 413.518 282.481C413.518 276.846 408.95 272.278 403.315 272.278C397.679 272.278 393.111 276.846 393.111 282.481C393.111 288.117 397.679 292.685 403.315 292.685Z" fill="#FFBE55"/>
<path id="ball-1" d="M305.574 150.37C311.209 150.37 315.778 145.802 315.778 140.167C315.778 134.531 311.209 129.963 305.574 129.963C299.939 129.963 295.37 134.531 295.37 140.167C295.37 145.802 299.939 150.37 305.574 150.37Z" fill="#FFBE55"/>
<path id="Vector_32" opacity="0.14" d="M217.5 494.611L207.296 488.704L197.093 494.611V457.019H217.5V494.611Z" fill="#0C0C0C"/>
</g>
</svg>
