<svg width="2600" height="880" viewBox="0 0 2600 880" fill="none" xmlns="http://www.w3.org/2000/svg">
<g clip-path="url(#clip0_13_236)">
<g filter="url(#filter0_d_13_236)">
<path d="M232.5 315.5L235 311.5L247 307H254L259.5 309L266 315.5L267.5 321L256 393L278 449.5L280 460L276 466.5L272 471.5L266 475H259.5H254L247 470L219 397.5V389.5L232.5 315.5Z" fill="#0E0D0D"/>
<path d="M232.5 315.5L235 311.5L247 307H254L259.5 309L266 315.5L267.5 321L256 393L278 449.5L280 460L276 466.5L272 471.5L266 475H259.5H254L247 470L219 397.5V389.5L232.5 315.5Z" stroke="#FAF1F1"/>
</g>
<g filter="url(#filter1_d_13_236)">
<path d="M267.51 360.13L266.062 339.28L263.928 321.123L259.999 321.079L240.089 325.867L233.761 327.724L235.186 372.107L276.931 435.467L283.66 444.417L288.758 448.719L295.005 450.719L300.324 451.937L306.007 450.845L309.877 446.259L313.746 441.674L314.19 435.506L312.418 430.085L267.51 360.13Z" fill="#100F0F"/>
<path d="M267.51 360.13L266.062 339.28L263.928 321.123L259.999 321.079L240.089 325.867L233.761 327.724L235.186 372.107L276.931 435.467L283.66 444.417L288.758 448.719L295.005 450.719L300.324 451.937L306.007 450.845L309.877 446.259L313.746 441.674L314.19 435.506L312.418 430.085L267.51 360.13Z" stroke="#FFF7F7"/>
</g>
<g filter="url(#filter2_d_13_236)">
<path d="M199.588 580.363L216.678 500.706L241.409 482.251L260.411 502.917L245.058 580.105L241.797 590.569L235.167 598.617L228.063 601.819L220.59 602.938L211.222 599.853L203.59 594.299L200.642 587.758L199.588 580.363Z" fill="#151414" stroke="#0E0D0D"/>
<path d="M215.299 506.972L219.307 435.329L226.975 408.137L247.521 393.687L266.934 408.911L257.072 517.086L215.299 506.972Z" fill="#151414" stroke="#111111"/>
</g>
<g filter="url(#filter3_d_13_236)">
<path d="M259.462 510.288L238.585 417.901L250.299 403.11L258.25 403.997L276.138 405.995L302.64 511.085L291.109 596.332L286.357 602.845L280.447 606.21L272.164 608.303L264.213 607.416L257.589 603.657L249.863 596.254L248.708 588.579L259.462 510.288Z" fill="#181717"/>
<path d="M259.462 510.288L238.585 417.901L250.299 403.11L258.25 403.997L276.138 405.995L302.64 511.085L291.109 596.332L286.357 602.845L280.447 606.21L272.164 608.303L264.213 607.416L257.589 603.657L249.863 596.254L248.708 588.579L259.462 510.288Z" stroke="#FFF7F7"/>
</g>
<g filter="url(#filter4_d_13_236)">
<ellipse cx="246" cy="245.5" rx="39" ry="36.5" fill="#100F0F"/>
</g>
<path d="M217 308.5L215 313.5V411.5V417.5L217 421.5L220 424L223.5 426.5L277 424L280 421.5L283 417.5L285 411.5V313.5L283 308.5L280 303L275 297.5L270.5 294.5L264 291.5L257 290H251.5H244.5H240L236 291.5L231 294.5L227 297.5L223.5 300.5L220 305L217 308.5Z" fill="#0E0D0D" stroke="#FEF9F9"/>
<path d="M232.5 315.5L235 311.5L247 307H254L259.5 309L266 315.5L267.5 321L256 393L278 449.5L280 460L276 466.5L272 471.5L266 475H259.5H254L247 470L219 397.5V389.5L232.5 315.5Z" fill="#0E0D0D" stroke="#FAF1F1"/>
</g>
<path d="M791.51 360.13L790.062 339.28L787.928 321.123L783.999 321.079L764.089 325.867L757.761 327.724L759.186 372.107L800.931 435.467L807.66 444.417L812.758 448.719L819.005 450.719L824.324 451.937L830.007 450.845L833.877 446.259L837.746 441.674L838.19 435.506L836.418 430.085L791.51 360.13Z" fill="#100F0F" stroke="#FFF7F7"/>
<path d="M706.214 575.976L738.603 501.222L766.475 487.978L781.052 511.972L750.85 584.646L745.599 594.266L737.52 600.856L729.925 602.602L722.378 602.234L713.797 597.37L707.404 590.426L705.796 583.434L706.214 575.976Z" fill="#151414" stroke="#0E0D0D"/>
<path d="M739.299 506.972L743.307 435.329L750.975 408.137L771.521 393.687L790.934 408.911L781.072 517.086L739.299 506.972Z" fill="#151414" stroke="#111111"/>
<path d="M795.809 511.084L756.509 424.906L764.955 408.034L772.92 407.28L790.84 405.583L838.24 503.048L844.357 588.853L841.035 596.199L835.937 600.7L828.255 604.441L820.291 605.195L813.039 602.869L803.964 597.199L801.266 589.921L795.809 511.084Z" fill="#181717" stroke="#FFF7F7"/>
<ellipse cx="770" cy="245.5" rx="39" ry="36.5" fill="#100F0F"/>
<path d="M741 308.5L739 313.5V411.5V417.5L741 421.5L744 424L747.5 426.5L801 424L804 421.5L807 417.5L809 411.5V313.5L807 308.5L804 303L799 297.5L794.5 294.5L788 291.5L781 290H775.5H768.5H764L760 291.5L755 294.5L751 297.5L747.5 300.5L744 305L741 308.5Z" fill="#0E0D0D" stroke="#FEF9F9"/>
<path d="M754.37 319.82L757.558 316.343L770.178 314.108L777.06 315.385L782.103 318.355L787.308 325.931L787.78 331.613L763.338 400.307L774.662 459.872L774.713 470.561L769.594 476.222L764.749 480.408L758.211 482.755L751.82 481.569L746.413 480.566L740.442 474.373L726.138 397.981L727.597 390.116L754.37 319.82Z" fill="#0E0D0D" stroke="#FAF1F1"/>
<path d="M1326.17 356.852L1320.02 338.163L1313.9 322.189L1310.51 323.507L1294.46 334.802L1289.45 338.7L1301.12 379.058L1352.03 422.935L1359.94 428.845L1365.34 431.041L1371.2 430.721L1376.08 430.002L1380.72 427.03L1382.98 421.471L1385.23 415.912L1384.16 410.081L1381.36 405.705L1326.17 356.852Z" fill="#100F0F" stroke="#FFF7F7"/>
<path d="M1200.13 566.706L1246.56 499.764L1276.49 492.25L1286.07 518.638L1242.19 583.969L1235.15 592.372L1225.94 597.248L1218.15 597.468L1210.82 595.626L1203.36 589.172L1198.46 581.108L1198.25 573.936L1200.13 566.706Z" fill="#151414" stroke="#0E0D0D"/>
<path d="M1242.3 508.972L1246.31 437.329L1253.97 410.137L1274.52 395.687L1293.93 410.911L1284.07 519.086L1242.3 508.972Z" fill="#151414" stroke="#111111"/>
<path d="M1298.81 513.084L1259.51 426.906L1267.96 410.034L1275.92 409.28L1293.84 407.583L1341.24 505.048L1347.36 590.853L1344.04 598.199L1338.94 602.7L1331.26 606.441L1323.29 607.195L1316.04 604.869L1306.96 599.199L1304.27 591.921L1298.81 513.084Z" fill="#181717" stroke="#FFF7F7"/>
<ellipse cx="1273" cy="247.5" rx="39" ry="36.5" fill="#100F0F"/>
<path d="M1244 310.5L1242 315.5V413.5V419.5L1244 423.5L1247 426L1250.5 428.5L1304 426L1307 423.5L1310 419.5L1312 413.5V315.5L1310 310.5L1307 305L1302 299.5L1297.5 296.5L1291 293.5L1284 292H1278.5H1271.5H1267L1263 293.5L1258 296.5L1254 299.5L1250.5 302.5L1247 307L1244 310.5Z" fill="#0E0D0D" stroke="#FEF9F9"/>
<path d="M1252.39 307.682L1256.13 304.808L1268.95 304.785L1275.51 307.232L1279.96 311.028L1283.78 319.389L1283.26 325.067L1247.32 388.508L1248.19 449.134L1246.4 459.671L1240.38 464.363L1234.88 467.65L1228.04 468.832L1221.95 466.561L1216.79 464.638L1211.98 457.507L1211.08 379.794L1213.88 372.298L1252.39 307.682Z" fill="#0E0D0D" stroke="#FAF1F1"/>
<path d="M1851.36 330.908L1850.01 310.052L1847.97 291.885L1844.04 291.82L1824.11 296.509L1817.77 298.334L1818.97 342.723L1860.4 406.292L1867.08 415.276L1872.16 419.603L1878.4 421.635L1883.71 422.879L1889.4 421.815L1893.29 417.249L1897.18 412.683L1897.66 406.518L1895.91 401.088L1851.36 330.908Z" fill="#100F0F" stroke="#FFF7F7"/>
<path d="M1761.03 564.546L1788.15 487.721L1815.03 472.572L1831.24 495.494L1806.16 570.091L1801.59 580.054L1793.99 587.19L1786.54 589.459L1778.98 589.616L1770.09 585.361L1763.22 578.878L1761.13 572.015L1761.03 564.546Z" fill="#151414" stroke="#0E0D0D"/>
<path d="M1788.3 492.972L1792.31 421.329L1799.97 394.137L1820.52 379.687L1839.93 394.911L1830.07 503.086L1788.3 492.972Z" fill="#151414" stroke="#111111"/>
<path d="M1832.46 496.288L1811.59 403.901L1823.3 389.11L1831.25 389.997L1849.14 391.995L1875.64 497.085L1864.11 582.332L1859.36 588.845L1853.45 592.21L1845.16 594.303L1837.21 593.416L1830.59 589.657L1822.86 582.254L1821.71 574.579L1832.46 496.288Z" fill="#181717" stroke="#FFF7F7"/>
<ellipse cx="1819" cy="231.5" rx="39" ry="36.5" fill="#100F0F"/>
<path d="M1790 294.5L1788 299.5V397.5V403.5L1790 407.5L1793 410L1796.5 412.5L1850 410L1853 407.5L1856 403.5L1858 397.5V299.5L1856 294.5L1853 289L1848 283.5L1843.5 280.5L1837 277.5L1830 276H1824.5H1817.5H1813L1809 277.5L1804 280.5L1800 283.5L1796.5 286.5L1793 291L1790 294.5Z" fill="#0E0D0D" stroke="#FEF9F9"/>
<path d="M1787.22 301.785L1789.34 297.575L1800.88 292.002L1807.85 291.365L1813.51 292.856L1820.58 298.738L1822.57 304.079L1817.67 376.826L1844.72 431.091L1847.67 441.365L1844.27 448.202L1840.74 453.545L1835.09 457.577L1828.61 458.168L1823.14 458.668L1815.71 454.326L1781.23 384.674L1780.5 376.707L1787.22 301.785Z" fill="#0E0D0D" stroke="#FAF1F1"/>
<path d="M2327.05 344.634L2339.4 327.777L2349.5 312.533L2346.52 309.962L2328.23 300.766L2322.2 298.099L2294.63 332.914L2285.61 408.252L2284.97 419.431L2286.09 426.007L2289.57 431.568L2292.84 435.932L2297.89 438.766L2303.8 437.762L2309.72 436.759L2314.04 432.335L2316.19 427.05L2327.05 344.634Z" fill="#100F0F" stroke="#FFF7F7"/>
<path d="M2338.79 563.795L2336.14 482.369L2355.68 458.488L2379.11 473.954L2382.85 552.565L2382.21 563.507L2377.72 572.917L2371.6 577.74L2364.62 580.631L2354.79 579.899L2346.04 576.352L2341.6 570.717L2338.79 563.795Z" fill="#151414" stroke="#0E0D0D"/>
<path d="M2337.23 484.99L2315.67 416.551L2313.23 388.403L2327.35 367.627L2350.89 375.011L2379.88 479.695L2337.23 484.99Z" fill="#151414" stroke="#FEF2F2"/>
<path d="M2290.37 495.633L2293.62 422.463L2293.65 391.3L2313.24 374.819L2334.25 389.507L2333.61 503.51L2290.37 495.633Z" fill="#151414" stroke="#FCF3F3"/>
<path d="M2262.04 554.806L2296.73 481.088L2324.99 468.712L2332.5 500L2306.39 564.85L2300.85 574.304L2292.57 580.641L2284.92 582.152L2277.39 581.55L2268.96 576.424L2262.79 569.286L2261.4 562.247L2262.04 554.806Z" fill="#151414" stroke="#0E0D0D"/>
<ellipse cx="2323" cy="243.5" rx="39" ry="36.5" fill="#100F0F"/>
<path d="M2294 306.5L2292 311.5V409.5V415.5L2294 419.5L2297 422L2300.5 424.5L2354 422L2357 419.5L2360 415.5L2362 409.5V311.5L2360 306.5L2357 301L2352 295.5L2347.5 292.5L2341 289.5L2334 288H2328.5H2321.5H2317L2313 289.5L2308 292.5L2304 295.5L2300.5 298.5L2297 303L2294 306.5Z" fill="#0E0D0D" stroke="#FEF9F9"/>
<path d="M2311.17 313.846L2312.61 309.356L2323.15 302.061L2329.94 300.351L2335.76 300.947L2343.65 305.663L2346.45 310.629L2352.89 383.257L2388.02 432.671L2392.53 442.365L2390.24 449.645L2387.58 455.471L2382.62 460.33L2376.31 461.918L2370.98 463.262L2362.97 460.123L2318.11 396.66L2316.15 388.902L2311.17 313.846Z" fill="#0E0D0D" stroke="#FAF1F1"/>
<defs>
<filter id="filter0_d_13_236" x="214.5" y="306.5" width="70.0275" height="177" filterUnits="userSpaceOnUse" color-interpolation-filters="sRGB">
<feFlood flood-opacity="0" result="BackgroundImageFix"/>
<feColorMatrix in="SourceAlpha" type="matrix" values="0 0 0 0 0 0 0 0 0 0 0 0 0 0 0 0 0 0 127 0" result="hardAlpha"/>
<feOffset dy="4"/>
<feGaussianBlur stdDeviation="2"/>
<feComposite in2="hardAlpha" operator="out"/>
<feColorMatrix type="matrix" values="0 0 0 0 0 0 0 0 0 0 0 0 0 0 0 0 0 0 0.25 0"/>
<feBlend mode="normal" in2="BackgroundImageFix" result="effect1_dropShadow_13_236"/>
<feBlend mode="normal" in="SourceGraphic" in2="effect1_dropShadow_13_236" result="shape"/>
</filter>
<filter id="filter1_d_13_236" x="229.249" y="320.578" width="89.4472" height="139.87" filterUnits="userSpaceOnUse" color-interpolation-filters="sRGB">
<feFlood flood-opacity="0" result="BackgroundImageFix"/>
<feColorMatrix in="SourceAlpha" type="matrix" values="0 0 0 0 0 0 0 0 0 0 0 0 0 0 0 0 0 0 127 0" result="hardAlpha"/>
<feOffset dy="4"/>
<feGaussianBlur stdDeviation="2"/>
<feComposite in2="hardAlpha" operator="out"/>
<feColorMatrix type="matrix" values="0 0 0 0 0 0 0 0 0 0 0 0 0 0 0 0 0 0 0.25 0"/>
<feBlend mode="normal" in2="BackgroundImageFix" result="effect1_dropShadow_13_236"/>
<feBlend mode="normal" in="SourceGraphic" in2="effect1_dropShadow_13_236" result="shape"/>
</filter>
<filter id="filter2_d_13_236" x="195.08" y="393.064" width="76.3768" height="218.386" filterUnits="userSpaceOnUse" color-interpolation-filters="sRGB">
<feFlood flood-opacity="0" result="BackgroundImageFix"/>
<feColorMatrix in="SourceAlpha" type="matrix" values="0 0 0 0 0 0 0 0 0 0 0 0 0 0 0 0 0 0 127 0" result="hardAlpha"/>
<feOffset dy="4"/>
<feGaussianBlur stdDeviation="2"/>
<feComposite in2="hardAlpha" operator="out"/>
<feColorMatrix type="matrix" values="0 0 0 0 0 0 0 0 0 0 0 0 0 0 0 0 0 0 0.25 0"/>
<feBlend mode="normal" in2="BackgroundImageFix" result="effect1_dropShadow_13_236"/>
<feBlend mode="normal" in="SourceGraphic" in2="effect1_dropShadow_13_236" result="shape"/>
</filter>
<filter id="filter3_d_13_236" x="234.045" y="402.582" width="73.1037" height="214.229" filterUnits="userSpaceOnUse" color-interpolation-filters="sRGB">
<feFlood flood-opacity="0" result="BackgroundImageFix"/>
<feColorMatrix in="SourceAlpha" type="matrix" values="0 0 0 0 0 0 0 0 0 0 0 0 0 0 0 0 0 0 127 0" result="hardAlpha"/>
<feOffset dy="4"/>
<feGaussianBlur stdDeviation="2"/>
<feComposite in2="hardAlpha" operator="out"/>
<feColorMatrix type="matrix" values="0 0 0 0 0 0 0 0 0 0 0 0 0 0 0 0 0 0 0.25 0"/>
<feBlend mode="normal" in2="BackgroundImageFix" result="effect1_dropShadow_13_236"/>
<feBlend mode="normal" in="SourceGraphic" in2="effect1_dropShadow_13_236" result="shape"/>
</filter>
<filter id="filter4_d_13_236" x="203" y="209" width="86" height="81" filterUnits="userSpaceOnUse" color-interpolation-filters="sRGB">
<feFlood flood-opacity="0" result="BackgroundImageFix"/>
<feColorMatrix in="SourceAlpha" type="matrix" values="0 0 0 0 0 0 0 0 0 0 0 0 0 0 0 0 0 0 127 0" result="hardAlpha"/>
<feOffset dy="4"/>
<feGaussianBlur stdDeviation="2"/>
<feComposite in2="hardAlpha" operator="out"/>
<feColorMatrix type="matrix" values="0 0 0 0 0 0 0 0 0 0 0 0 0 0 0 0 0 0 0.25 0"/>
<feBlend mode="normal" in2="BackgroundImageFix" result="effect1_dropShadow_13_236"/>
<feBlend mode="normal" in="SourceGraphic" in2="effect1_dropShadow_13_236" result="shape"/>
</filter>
<clipPath id="clip0_13_236">
<rect width="520" height="880" fill="white"/>
</clipPath>
</defs>
</svg>
