<svg width="2657" height="418" viewBox="0 0 2657 418" fill="none" xmlns="http://www.w3.org/2000/svg">
<path d="M182.5 106.5L185 102.5L197 98H204L209.5 100L216 106.5L217.5 112L206 184L228 240.5L230 251L226 257.5L222 262.5L216 266H209.5H204L197 261L169 188.5V180.5L182.5 106.5Z" fill="#0E0D0D" stroke="#FAF1F1"/>
<path d="M217.51 151.13L216.062 130.28L213.928 112.123L209.999 112.079L190.089 116.867L183.761 118.724L185.186 163.107L226.931 226.467L233.66 235.417L238.758 239.719L245.005 241.719L250.324 242.937L256.007 241.845L259.877 237.259L263.746 232.674L264.19 226.506L262.418 221.085L217.51 151.13Z" fill="#100F0F" stroke="#FFF7F7"/>
<path d="M149.588 371.363L166.678 291.706L191.409 273.251L210.411 293.917L195.058 371.105L191.797 381.569L185.167 389.617L178.063 392.819L170.59 393.938L161.222 390.853L153.59 385.299L150.642 378.758L149.588 371.363Z" fill="#151414" stroke="#0E0D0D"/>
<path d="M165.299 297.972L169.307 226.329L176.975 199.137L197.521 184.687L216.934 199.911L207.072 308.086L165.299 297.972Z" fill="#151414" stroke="#111111"/>
<path d="M209.462 301.288L188.585 208.901L200.299 194.11L208.25 194.997L226.138 196.995L252.64 302.085L241.109 387.332L236.357 393.845L230.447 397.21L222.164 399.303L214.213 398.416L207.589 394.657L199.863 387.254L198.708 379.579L209.462 301.288Z" fill="#181717" stroke="#FFF7F7"/>
<ellipse cx="196" cy="36.5" rx="39" ry="36.5" fill="#100F0F"/>
<path d="M167 99.5L165 104.5V202.5V208.5L167 212.5L170 215L173.5 217.5L227 215L230 212.5L233 208.5L235 202.5V104.5L233 99.5L230 94L225 88.5L220.5 85.5L214 82.5L207 81H201.5H194.5H190L186 82.5L181 85.5L177 88.5L173.5 91.5L170 96L167 99.5Z" fill="#0E0D0D" stroke="#FEF9F9"/>
<path d="M182.5 106.5L185 102.5L197 98H204L209.5 100L216 106.5L217.5 112L206 184L228 240.5L230 251L226 257.5L222 262.5L216 266H209.5H204L197 261L169 188.5V180.5L182.5 106.5Z" fill="#0E0D0D" stroke="#FAF1F1"/>
<path d="M756.705 151.13L755.257 130.28L753.123 112.123L749.194 112.079L729.284 116.867L722.956 118.724L724.381 163.107L766.126 226.467L772.856 235.417L777.953 239.719L784.2 241.719L789.52 242.937L795.202 241.845L799.072 237.259L802.941 232.674L803.386 226.506L801.613 221.085L756.705 151.13Z" fill="#100F0F" stroke="#FFF7F7"/>
<path d="M671.409 366.976L703.798 292.222L731.67 278.978L746.247 302.972L716.046 375.646L710.795 385.266L702.715 391.856L695.12 393.602L687.573 393.234L678.992 388.37L672.599 381.426L670.991 374.434L671.409 366.976Z" fill="#151414" stroke="#0E0D0D"/>
<path d="M704.495 297.972L708.502 226.329L716.17 199.137L736.716 184.687L756.129 199.911L746.267 308.086L704.495 297.972Z" fill="#151414" stroke="#111111"/>
<path d="M761.004 302.084L721.704 215.906L730.151 199.034L738.115 198.28L756.035 196.583L803.435 294.048L809.553 379.853L806.23 387.199L801.132 391.7L793.451 395.441L785.486 396.195L778.235 393.869L769.16 388.199L766.461 380.921L761.004 302.084Z" fill="#181717" stroke="#FFF7F7"/>
<ellipse cx="735.195" cy="36.5" rx="39" ry="36.5" fill="#100F0F"/>
<path d="M706.195 99.5L704.195 104.5V202.5V208.5L706.195 212.5L709.195 215L712.695 217.5L766.195 215L769.195 212.5L772.195 208.5L774.195 202.5V104.5L772.195 99.5L769.195 94L764.195 88.5L759.695 85.5L753.195 82.5L746.195 81H740.695H733.695H729.195L725.195 82.5L720.195 85.5L716.195 88.5L712.695 91.5L709.195 96L706.195 99.5Z" fill="#0E0D0D" stroke="#FEF9F9"/>
<path d="M719.566 110.82L722.753 107.343L735.373 105.108L742.255 106.385L747.298 109.355L752.503 116.931L752.975 122.613L728.533 191.307L739.857 250.872L739.908 261.561L734.789 267.222L729.944 271.408L723.406 273.755L717.015 272.569L711.608 271.566L705.637 265.373L691.333 188.981L692.793 181.116L719.566 110.82Z" fill="#0E0D0D" stroke="#FAF1F1"/>
<path d="M1334.38 145.852L1328.22 127.163L1322.11 111.189L1318.71 112.507L1302.67 123.802L1297.65 127.7L1309.32 168.058L1360.23 211.935L1368.14 217.845L1373.55 220.041L1379.4 219.721L1384.28 219.002L1388.92 216.03L1391.18 210.471L1393.44 204.912L1392.37 199.081L1389.56 194.705L1334.38 145.852Z" fill="#100F0F" stroke="#FFF7F7"/>
<path d="M1208.33 355.706L1254.76 288.764L1284.69 281.25L1294.27 307.638L1250.39 372.969L1243.36 381.372L1234.14 386.248L1226.35 386.468L1219.02 384.626L1211.56 378.172L1206.66 370.108L1206.45 362.936L1208.33 355.706Z" fill="#151414" stroke="#0E0D0D"/>
<path d="M1250.5 297.972L1254.51 226.329L1262.18 199.137L1282.72 184.687L1302.14 199.911L1292.27 308.086L1250.5 297.972Z" fill="#151414" stroke="#111111"/>
<path d="M1307.01 302.084L1267.71 215.906L1276.16 199.034L1284.12 198.28L1302.04 196.583L1349.44 294.048L1355.56 379.853L1352.24 387.199L1347.14 391.7L1339.46 395.441L1331.49 396.195L1324.24 393.869L1315.17 388.199L1312.47 380.921L1307.01 302.084Z" fill="#181717" stroke="#FFF7F7"/>
<ellipse cx="1281.2" cy="36.5" rx="39" ry="36.5" fill="#100F0F"/>
<path d="M1252.2 99.5L1250.2 104.5V202.5V208.5L1252.2 212.5L1255.2 215L1258.7 217.5L1312.2 215L1315.2 212.5L1318.2 208.5L1320.2 202.5V104.5L1318.2 99.5L1315.2 94L1310.2 88.5L1305.7 85.5L1299.2 82.5L1292.2 81H1286.7H1279.7H1275.2L1271.2 82.5L1266.2 85.5L1262.2 88.5L1258.7 91.5L1255.2 96L1252.2 99.5Z" fill="#0E0D0D" stroke="#FEF9F9"/>
<path d="M1260.59 96.682L1264.33 93.8079L1277.15 93.7854L1283.71 96.2317L1288.16 100.028L1291.98 108.389L1291.46 114.067L1255.53 177.508L1256.39 238.134L1254.6 248.671L1248.58 253.363L1243.08 256.65L1236.24 257.832L1230.15 255.561L1225 253.638L1220.18 246.507L1219.29 168.794L1222.08 161.298L1260.59 96.682Z" fill="#0E0D0D" stroke="#FAF1F1"/>
<path d="M1881.35 135.908L1880.01 115.052L1877.97 96.8848L1874.04 96.8203L1854.1 101.509L1847.77 103.334L1848.97 147.723L1890.39 211.292L1897.08 220.276L1902.16 224.603L1908.39 226.635L1913.71 227.879L1919.39 226.815L1923.29 222.249L1927.18 217.683L1927.65 211.518L1925.91 206.088L1881.35 135.908Z" fill="#100F0F" stroke="#FFF7F7"/>
<path d="M1791.03 369.546L1818.14 292.721L1845.03 277.572L1861.24 300.494L1836.16 375.091L1831.59 385.054L1823.99 392.19L1816.53 394.459L1808.98 394.616L1800.08 390.361L1793.22 383.878L1791.13 377.015L1791.03 369.546Z" fill="#151414" stroke="#0E0D0D"/>
<path d="M1818.29 297.972L1822.3 226.329L1829.97 199.137L1850.51 184.687L1869.93 199.911L1860.07 308.086L1818.29 297.972Z" fill="#151414" stroke="#111111"/>
<path d="M1862.46 301.288L1841.58 208.901L1853.29 194.11L1861.24 194.997L1879.13 196.995L1905.63 302.085L1894.1 387.332L1889.35 393.845L1883.44 397.21L1875.16 399.303L1867.21 398.416L1860.58 394.657L1852.86 387.254L1851.7 379.579L1862.46 301.288Z" fill="#181717" stroke="#FFF7F7"/>
<ellipse cx="1848.99" cy="36.5" rx="39" ry="36.5" fill="#100F0F"/>
<path d="M1819.99 99.5L1817.99 104.5V202.5V208.5L1819.99 212.5L1822.99 215L1826.49 217.5L1879.99 215L1882.99 212.5L1885.99 208.5L1887.99 202.5V104.5L1885.99 99.5L1882.99 94L1877.99 88.5L1873.49 85.5L1866.99 82.5L1859.99 81H1854.49H1847.49H1842.99L1838.99 82.5L1833.99 85.5L1829.99 88.5L1826.49 91.5L1822.99 96L1819.99 99.5Z" fill="#0E0D0D" stroke="#FEF9F9"/>
<path d="M1817.21 106.785L1819.34 102.575L1830.88 97.0017L1837.85 96.3649L1843.51 97.8563L1850.57 103.738L1852.57 109.079L1847.66 181.826L1874.71 236.091L1877.66 246.365L1874.27 253.202L1870.74 258.545L1865.08 262.577L1858.61 263.168L1853.13 263.668L1845.71 259.326L1811.23 189.674L1810.5 181.707L1817.21 106.785Z" fill="#0E0D0D" stroke="#FAF1F1"/>
<path d="M2398.11 137.634L2410.46 120.777L2420.55 105.533L2417.58 102.962L2399.28 93.7658L2393.25 91.0989L2365.69 125.914L2356.67 201.252L2356.03 212.431L2357.14 219.007L2360.62 224.568L2363.9 228.932L2368.94 231.766L2374.86 230.762L2380.78 229.759L2385.1 225.335L2387.24 220.05L2398.11 137.634Z" fill="#100F0F" stroke="#FFF7F7"/>
<path d="M2409.85 356.795L2407.2 275.369L2426.74 251.488L2450.17 266.954L2453.91 345.565L2453.27 356.507L2448.78 365.917L2442.66 370.74L2435.68 373.631L2425.84 372.899L2417.1 369.352L2412.66 363.717L2409.85 356.795Z" fill="#151414" stroke="#0E0D0D"/>
<path d="M2408.28 277.99L2386.72 209.551L2384.29 181.403L2398.41 160.627L2421.95 168.011L2450.93 272.695L2408.28 277.99Z" fill="#151414" stroke="#FEF2F2"/>
<path d="M2361.43 288.633L2364.67 215.463L2364.71 184.3L2384.3 167.819L2405.3 182.507L2404.67 296.51L2361.43 288.633Z" fill="#151414" stroke="#FCF3F3"/>
<path d="M2333.1 347.806L2367.78 274.088L2396.05 261.712L2403.56 293L2377.45 357.85L2371.9 367.304L2363.62 373.641L2355.98 375.152L2348.45 374.55L2340.02 369.424L2333.84 362.286L2332.45 355.247L2333.1 347.806Z" fill="#151414" stroke="#0E0D0D"/>
<ellipse cx="2394.06" cy="36.5" rx="39" ry="36.5" fill="#100F0F"/>
<path d="M2365.06 99.5L2363.06 104.5V202.5V208.5L2365.06 212.5L2368.06 215L2371.56 217.5L2425.06 215L2428.06 212.5L2431.06 208.5L2433.06 202.5V104.5L2431.06 99.5L2428.06 94L2423.06 88.5L2418.56 85.5L2412.06 82.5L2405.06 81H2399.56H2392.56H2388.06L2384.06 82.5L2379.06 85.5L2375.06 88.5L2371.56 91.5L2368.06 96L2365.06 99.5Z" fill="#0E0D0D" stroke="#FEF9F9"/>
<path d="M2382.22 106.846L2383.67 102.356L2394.21 95.0614L2401 93.3514L2406.82 93.9473L2414.71 98.6625L2417.51 103.629L2423.94 176.257L2459.08 225.671L2463.58 235.365L2461.29 242.645L2458.64 248.471L2453.67 253.33L2447.37 254.918L2442.04 256.262L2434.03 253.123L2389.16 189.66L2387.21 181.902L2382.22 106.846Z" fill="#0E0D0D" stroke="#FAF1F1"/>
</svg>
