<svg width="616" height="578" viewBox="0 0 616 578" fill="none" xmlns="http://www.w3.org/2000/svg">
<path id="Union" opacity="0.6" fill-rule="evenodd" clip-rule="evenodd" d="M612.514 107.013L615.072 288.913L599.072 288.991L596.515 107.238C595.8 56.4332 554.035 15.8269 503.23 16.5416C453.851 17.2362 414.106 56.7091 412.57 105.57C413.775 111.868 414.434 118.362 414.495 125.002L417.495 451.002C418.044 510.646 370.138 559.442 310.494 559.991C268.087 560.381 231.164 536.277 213.167 500.874C199.964 545.068 159.2 577.465 110.663 577.911C51.019 578.46 2.22289 530.554 1.67402 470.91L0 289H16.0007L17.6733 470.763C18.1409 521.571 59.708 562.38 110.516 561.912C161.324 561.444 202.133 519.877 201.666 469.069L201.533 454.683C201.519 454.119 201.51 453.555 201.505 452.989L198.505 126.989C197.956 67.3452 245.862 18.549 305.506 18.0001C347.111 17.6173 383.437 40.8114 401.792 75.1205C415.689 32.3761 455.559 1.21058 503.005 0.543133C562.646 -0.295831 611.675 47.3725 612.514 107.013ZM396.534 106.993C387.711 64.9664 350.241 33.5891 305.653 33.9995C254.845 34.467 214.036 76.0341 214.504 126.842L215.996 289H216.009L217.531 454.405C218.826 504.484 260.06 544.454 310.347 543.992C361.155 543.524 401.964 501.957 401.496 451.149L400.013 289.959L399.066 289.964L396.535 110.052C396.521 109.029 396.52 108.009 396.534 106.993Z" fill="black"/>
</svg>
